<svg xmlns="http://www.w3.org/2000/svg" xmlns:xlink="http://www.w3.org/1999/xlink" viewBox="0 0 887.37 278.38"><defs><clipPath id="a"><polygon points="657.23 270.64 638.17 55.8 863.81 35.2 887.37 247.45 657.23 270.64" style="fill:none"/></clipPath></defs><title>i612 Logo</title><path d="M307,106.25c1.35-1,2.69-1.85,4-2.65s2.69-1.53,4-2.17a40.94,40.94,0,0,1,4.05-1.69,35.32,35.32,0,0,1,4.18-1.2,39.16,39.16,0,0,1,4.44-.72,44.94,44.94,0,0,1,4.71-.25c1.61,0,3.27.07,5,.23a50.05,50.05,0,0,1,9.44,1.75,43.75,43.75,0,0,1,16.12,8.64,49.59,49.59,0,0,1,6.68,6.88,48.63,48.63,0,0,1,5.31,8.15,47,47,0,0,1,3.51,8.95,50.42,50.42,0,0,1,1.69,9.75,62.14,62.14,0,0,1-.12,10.54,59.07,59.07,0,0,1-1.11,7.18,55.72,55.72,0,0,1-2,6.78,51.81,51.81,0,0,1-2.8,6.38,53.77,53.77,0,0,1-3.64,6,48.2,48.2,0,0,1-4.37,5.37,44.87,44.87,0,0,1-10.54,8.29,46.51,46.51,0,0,1-6.17,2.92,49.25,49.25,0,0,1-6.82,2.08,59.46,59.46,0,0,1-7.51,1.22,72.59,72.59,0,0,1-8.21.36c-2.85,0-5.81-.19-8.9-.5q-5.55-.56-10.51-1.54a83,83,0,0,1-9.3-2.37,62.11,62.11,0,0,1-8.1-3.21,48.21,48.21,0,0,1-6.91-4,45.12,45.12,0,0,1-5.91-5,49.46,49.46,0,0,1-5.13-6.05,56,56,0,0,1-4.34-7.1,68.24,68.24,0,0,1-3.56-8.16,64.94,64.94,0,0,1-2.6-9.3,87.17,87.17,0,0,1-1.48-10.54q-.47-5.58-.35-11.77t.76-13a158,158,0,0,1,2.85-18.52,104.7,104.7,0,0,1,4.67-15.65,70.65,70.65,0,0,1,6.5-12.8,52.16,52.16,0,0,1,8.32-9.94,53.9,53.9,0,0,1,21.28-12.15A63.09,63.09,0,0,1,316.92,45a82.16,82.16,0,0,1,14.19.06q4.39.38,8.33,1c2.61.4,5.07.87,7.36,1.41a62.74,62.74,0,0,1,6.4,1.85,45.71,45.71,0,0,1,5.43,2.28,47,47,0,0,1,4.71,2.71,44.65,44.65,0,0,1,4.23,3.15A41.06,41.06,0,0,1,371.32,61a39.58,39.58,0,0,1,3.26,4,44,44,0,0,1,2.81,4.48,50.29,50.29,0,0,1,2.35,5,56.77,56.77,0,0,1,1.9,5.43q.84,2.84,1.45,5.91l-41.56,1.36A40.86,40.86,0,0,0,341,83.1a27,27,0,0,0-.89-3.45,18.78,18.78,0,0,0-1.23-2.85,11.4,11.4,0,0,0-1.56-2.24,13.09,13.09,0,0,0-1.85-1.73,12.82,12.82,0,0,0-2.12-1.3,13.23,13.23,0,0,0-2.38-.88,16.9,16.9,0,0,0-2.64-.46,17.51,17.51,0,0,0-4.77.22,14.89,14.89,0,0,0-4.33,1.52,17.73,17.73,0,0,0-3.9,2.83,24.47,24.47,0,0,0-3.46,4.14,24.8,24.8,0,0,0-2.33,4.48A66.11,66.11,0,0,0,307.25,90c-.74,2.55-1.48,5.44-2.2,8.68s-1.43,6.83-2.13,10.76Q304.94,107.7,307,106.25Z" style="fill:#333"/><path d="M307.25,90a66.11,66.11,0,0,1,2.26-6.58,24.8,24.8,0,0,1,2.33-4.48,24.47,24.47,0,0,1,3.46-4.14,17.73,17.73,0,0,1,3.9-2.83,14.89,14.89,0,0,1,4.33-1.52,17.51,17.51,0,0,1,4.77-.22,16.9,16.9,0,0,1,2.64.46,13.23,13.23,0,0,1,2.38.88,12.82,12.82,0,0,1,2.12,1.3,13.09,13.09,0,0,1,1.85,1.73,11.4,11.4,0,0,1,1.56,2.24,18.78,18.78,0,0,1,1.23,2.85A27,27,0,0,1,341,83.1a40.86,40.86,0,0,1,.56,4.07l41.56-1.36q-.61-3.07-1.45-5.91a56.77,56.77,0,0,0-1.9-5.43,50.29,50.29,0,0,0-2.35-5A44,44,0,0,0,374.58,65a39.58,39.58,0,0,0-3.26-4,41.06,41.06,0,0,0-3.75-3.59,44.65,44.65,0,0,0-4.23-3.15,47,47,0,0,0-4.71-2.71,45.71,45.71,0,0,0-5.43-2.28,62.74,62.74,0,0,0-6.4-1.85c-2.29-.54-4.75-1-7.36-1.41s-5.4-.73-8.33-1A82.16,82.16,0,0,0,316.92,45a63.09,63.09,0,0,0-12.76,2.4,53.9,53.9,0,0,0-21.28,12.15,52.16,52.16,0,0,0-8.32,9.94,70.65,70.65,0,0,0-6.5,12.8,104.7,104.7,0,0,0-4.67,15.65,158,158,0,0,0-2.85,18.52q-.66,6.81-.76,13t.35,11.77a87.17,87.17,0,0,0,1.48,10.54,64.94,64.94,0,0,0,2.6,9.3,68.24,68.24,0,0,0,3.56,8.16,56,56,0,0,0,4.34,7.1,49.46,49.46,0,0,0,5.13,6.05,45.12,45.12,0,0,0,5.91,5,48.21,48.21,0,0,0,6.91,4,62.11,62.11,0,0,0,8.1,3.21,83,83,0,0,0,9.3,2.37q5,1,10.51,1.54c3.09.31,6,.48,8.9.5a72.59,72.59,0,0,0,8.21-.36,59.46,59.46,0,0,0,7.51-1.22,49.25,49.25,0,0,0,6.82-2.08,46.51,46.51,0,0,0,6.17-2.92,44.87,44.87,0,0,0,10.54-8.29,48.2,48.2,0,0,0,4.37-5.37,53.77,53.77,0,0,0,3.64-6,51.81,51.81,0,0,0,2.8-6.38,55.72,55.72,0,0,0,2-6.78,59.07,59.07,0,0,0,1.11-7.18,62.14,62.14,0,0,0,.12-10.54,50.42,50.42,0,0,0-1.69-9.75,47,47,0,0,0-3.51-8.95,48.63,48.63,0,0,0-5.31-8.15,49.59,49.59,0,0,0-6.68-6.88,43.75,43.75,0,0,0-16.12-8.64,50.05,50.05,0,0,0-9.44-1.75c-1.7-.16-3.36-.23-5-.23a44.94,44.94,0,0,0-4.71.25,39.16,39.16,0,0,0-4.44.72,35.32,35.32,0,0,0-4.18,1.2,40.94,40.94,0,0,0-4.05,1.69c-1.35.64-2.69,1.36-4,2.17s-2.68,1.69-4,2.65-2.68,2-4,3.15q1.05-5.9,2.13-10.76C305.77,95.4,306.51,92.51,307.25,90Zm-4.2,43a19.29,19.29,0,0,1,2.88-3.28,20.4,20.4,0,0,1,3.33-2.5,17.79,17.79,0,0,1,3.6-1.67,18,18,0,0,1,3.88-.84,20.53,20.53,0,0,1,4.15,0,18.75,18.75,0,0,1,4,.79,16.49,16.49,0,0,1,3.56,1.58,17.8,17.8,0,0,1,3.15,2.37,21.11,21.11,0,0,1,2.73,3.16,19.79,19.79,0,0,1,2.13,3.9,24.54,24.54,0,0,1,1.35,4.59,33,33,0,0,1,.57,5.26,49.34,49.34,0,0,1-1.1,11.67,32.41,32.41,0,0,1-1.5,4.9,22.26,22.26,0,0,1-2.11,4.07,18,18,0,0,1-2.72,3.25,20.75,20.75,0,0,1-3.15,2.43,17.7,17.7,0,0,1-3.41,1.62,17.33,17.33,0,0,1-3.66.81,19,19,0,0,1-3.92,0,20.11,20.11,0,0,1-4.18-.84,18.52,18.52,0,0,1-3.75-1.66,19.2,19.2,0,0,1-3.33-2.48,23.93,23.93,0,0,1-2.9-3.3,21,21,0,0,1-2.28-4,23.81,23.81,0,0,1-1.47-4.58,30.85,30.85,0,0,1-.64-5.15,40,40,0,0,1,.17-5.73,41.13,41.13,0,0,1,.89-5.54,30.43,30.43,0,0,1,1.55-4.78A23.28,23.28,0,0,1,303.05,132.93Z" style="fill:none"/><path d="M299.29,141.75a41.13,41.13,0,0,0-.89,5.54,40,40,0,0,0-.17,5.73,30.85,30.85,0,0,0,.64,5.15,23.81,23.81,0,0,0,1.47,4.58,21,21,0,0,0,2.28,4,23.93,23.93,0,0,0,2.9,3.3,19.2,19.2,0,0,0,3.33,2.48,18.52,18.52,0,0,0,3.75,1.66,20.11,20.11,0,0,0,4.18.84,19,19,0,0,0,3.92,0,17.33,17.33,0,0,0,3.66-.81,17.7,17.7,0,0,0,3.41-1.62,20.75,20.75,0,0,0,3.15-2.43,18,18,0,0,0,2.72-3.25,22.26,22.26,0,0,0,2.11-4.07,32.41,32.41,0,0,0,1.5-4.9,49.34,49.34,0,0,0,1.1-11.67,33,33,0,0,0-.57-5.26,24.54,24.54,0,0,0-1.35-4.59,19.79,19.79,0,0,0-2.13-3.9,21.11,21.11,0,0,0-2.73-3.16,17.8,17.8,0,0,0-3.15-2.37,16.49,16.49,0,0,0-3.56-1.58,18.75,18.75,0,0,0-4-.79,20.53,20.53,0,0,0-4.15,0,18,18,0,0,0-3.88.84,17.79,17.79,0,0,0-3.6,1.67,20.4,20.4,0,0,0-3.33,2.5,19.29,19.29,0,0,0-2.88,3.28,23.28,23.28,0,0,0-2.21,4A30.43,30.43,0,0,0,299.29,141.75Z" style="fill:#16d2ea"/><path d="M411.67,216.19,429,20.62,218.58,3l-3.06,31,9.58,184,200.32,20.65,1.92-20.81ZM307,106.25c1.35-1,2.69-1.85,4-2.65s2.69-1.53,4-2.17a40.94,40.94,0,0,1,4.05-1.69,35.32,35.32,0,0,1,4.18-1.2,39.16,39.16,0,0,1,4.44-.72,44.94,44.94,0,0,1,4.71-.25c1.61,0,3.27.07,5,.23a50.05,50.05,0,0,1,9.44,1.75,43.75,43.75,0,0,1,16.12,8.64,49.59,49.59,0,0,1,6.68,6.88,48.63,48.63,0,0,1,5.31,8.15,47,47,0,0,1,3.51,8.95,50.42,50.42,0,0,1,1.69,9.75,62.14,62.14,0,0,1-.12,10.54,59.07,59.07,0,0,1-1.11,7.18,55.72,55.72,0,0,1-2,6.78,51.81,51.81,0,0,1-2.8,6.38,53.77,53.77,0,0,1-3.64,6,48.2,48.2,0,0,1-4.37,5.37,44.87,44.87,0,0,1-10.54,8.29,46.51,46.51,0,0,1-6.17,2.92,49.25,49.25,0,0,1-6.82,2.08,59.46,59.46,0,0,1-7.51,1.22,72.59,72.59,0,0,1-8.21.36c-2.85,0-5.81-.19-8.9-.5q-5.55-.56-10.51-1.54a83,83,0,0,1-9.3-2.37,62.11,62.11,0,0,1-8.1-3.21,48.21,48.21,0,0,1-6.91-4,45.12,45.12,0,0,1-5.91-5,49.46,49.46,0,0,1-5.13-6.05,56,56,0,0,1-4.34-7.1,68.24,68.24,0,0,1-3.56-8.16,64.94,64.94,0,0,1-2.6-9.3,87.17,87.17,0,0,1-1.48-10.54q-.47-5.58-.35-11.77t.76-13a158,158,0,0,1,2.85-18.52,104.7,104.7,0,0,1,4.67-15.65,70.65,70.65,0,0,1,6.5-12.8,52.16,52.16,0,0,1,8.32-9.94,53.9,53.9,0,0,1,21.28-12.15A63.09,63.09,0,0,1,316.92,45a82.16,82.16,0,0,1,14.19.06q4.39.38,8.33,1c2.61.4,5.07.87,7.36,1.41a62.74,62.74,0,0,1,6.4,1.85,45.71,45.71,0,0,1,5.43,2.28,47,47,0,0,1,4.71,2.71,44.65,44.65,0,0,1,4.23,3.15A41.06,41.06,0,0,1,371.32,61a39.58,39.58,0,0,1,3.26,4,44,44,0,0,1,2.81,4.48,50.29,50.29,0,0,1,2.35,5,56.77,56.77,0,0,1,1.9,5.43q.84,2.84,1.45,5.91l-41.56,1.36A40.86,40.86,0,0,0,341,83.1a27,27,0,0,0-.89-3.45,18.78,18.78,0,0,0-1.23-2.85,11.4,11.4,0,0,0-1.56-2.24,13.09,13.09,0,0,0-1.85-1.73,12.82,12.82,0,0,0-2.12-1.3,13.23,13.23,0,0,0-2.38-.88,16.9,16.9,0,0,0-2.64-.46,17.51,17.51,0,0,0-4.77.22,14.89,14.89,0,0,0-4.33,1.52,17.73,17.73,0,0,0-3.9,2.83,24.47,24.47,0,0,0-3.46,4.14,24.8,24.8,0,0,0-2.33,4.48A66.11,66.11,0,0,0,307.25,90c-.74,2.55-1.48,5.44-2.2,8.68s-1.43,6.83-2.13,10.76Q304.94,107.7,307,106.25Z" style="fill:#16d2ea"/><path d="M624.7,50l49.14-4.48,2.64-20.06L444.17-.06,442.75,16,425.42,211.59l15.67,1.69,200,21.62Z" style="fill:#f87ea8"/><path d="M202.79,39.85,0,51.59,16.83,278.38l196.49-36.11L202.79,39.85" style="fill:#ffcb00"/><g style="isolation:isolate"><g style="clip-path:url(#a)"><path d="M863.81,35.2,638.17,55.8l19.06,214.84,230.14-23.19L863.81,35.2" style="fill:#ff9901"/></g></g><path d="M740.45,129l-41.59.61c.14-2.92.37-5.68.7-8.3s.77-5.07,1.3-7.38a55.24,55.24,0,0,1,1.88-6.49,42.54,42.54,0,0,1,2.48-5.57A39.2,39.2,0,0,1,708.35,97a38.53,38.53,0,0,1,3.84-4.36,41.82,41.82,0,0,1,4.56-3.86A47.7,47.7,0,0,1,722,85.46a47.11,47.11,0,0,1,6.21-2.84,71,71,0,0,1,7.39-2.3q4-1,8.57-1.76t9.75-1.23c3.59-.33,7-.54,10.21-.64s6.24-.06,9.07.08a76.15,76.15,0,0,1,7.93.8,49.51,49.51,0,0,1,6.8,1.52,46.2,46.2,0,0,1,5.95,2.22,42.82,42.82,0,0,1,5.38,2.94,40.38,40.38,0,0,1,9.05,8,40.34,40.34,0,0,1,3.54,4.91,39.63,39.63,0,0,1,4.62,11,43,43,0,0,1,1.08,6.09,46.42,46.42,0,0,1,.21,6.66,44.84,44.84,0,0,1-.8,6.61,46.31,46.31,0,0,1-1.79,6.56,54,54,0,0,1-2.8,6.52,55.25,55.25,0,0,1-4.1,6.73,88.6,88.6,0,0,1-5.69,7.2q-3.26,3.72-7.3,7.67t-8.89,8.14q-2.89,2.44-5.3,4.53c-1.61,1.38-3.06,2.65-4.35,3.78s-2.41,2.16-3.37,3.05-1.77,1.65-2.41,2.3-1.32,1.33-2,2.06-1.42,1.53-2.17,2.36-1.52,1.71-2.32,2.64S762.84,193,762,194l64.36-6.3,3.56,33.69L705.54,233.75a75.8,75.8,0,0,1,2.65-18.4,80.52,80.52,0,0,1,3-8.92,84.23,84.23,0,0,1,4.11-8.74,81.37,81.37,0,0,1,5.8-9.12q3.46-4.78,8.08-10t10.36-11q5.75-5.72,12.62-11.9,4.19-3.78,7.61-7.08t6-6.11c1.76-1.88,3.25-3.59,4.49-5.14a36.76,36.76,0,0,0,2.94-4.18,32.93,32.93,0,0,0,1.86-3.63,25.15,25.15,0,0,0,1.24-3.48,20.31,20.31,0,0,0,.62-3.32,16,16,0,0,0,0-3.17,15.68,15.68,0,0,0-.64-3.19,14.31,14.31,0,0,0-1.24-2.9,15.21,15.21,0,0,0-1.83-2.59,18.24,18.24,0,0,0-2.42-2.29,17.44,17.44,0,0,0-2.86-1.82,16.65,16.65,0,0,0-3.12-1.21,17.81,17.81,0,0,0-3.38-.57,21.16,21.16,0,0,0-3.64,0,21.52,21.52,0,0,0-3.72.66,17.19,17.19,0,0,0-3.29,1.23,16.48,16.48,0,0,0-2.88,1.82,16.81,16.81,0,0,0-2.46,2.39,15.43,15.43,0,0,0-2,3.13,24.34,24.34,0,0,0-1.5,4,37.27,37.27,0,0,0-1,4.93q-.37,2.7-.5,5.85" style="fill:#333"/><path d="M572.74,197.49l-41-4.44,10.43-96.23q-2.75,1.62-5.42,3.08t-5.29,2.72c-1.74.85-3.47,1.64-5.17,2.36s-3.38,1.4-5,2-3.42,1.2-5.27,1.78-3.82,1.12-5.87,1.66-4.21,1-6.46,1.54-4.6,1-7,1.42l3.35-33.49q5.46-1.11,10.35-2.46t9.22-2.93a86.64,86.64,0,0,0,8.07-3.41,63.88,63.88,0,0,0,6.94-3.88,70.79,70.79,0,0,0,6.09-4.44,67.92,67.92,0,0,0,5.52-5.08A66.13,66.13,0,0,0,551.06,52a72.43,72.43,0,0,0,4.39-6.37L590,49.38Z" style="fill:#333"/><polyline points="100.92 231.76 93.98 124.09 130.04 120.38 136.42 225.88 100.92 231.76" style="fill:#333"/><polyline points="93.14 111.05 91.29 82.46 127.57 79.6 129.26 107.61 93.14 111.05" style="fill:#333"/></svg>