<?xml version="1.0" encoding="UTF-8"?>
<svg width="64px" height="64px" viewBox="0 0 64 64" version="1.1" xmlns="http://www.w3.org/2000/svg" xmlns:xlink="http://www.w3.org/1999/xlink">
    <!-- Generator: Sketch 56.3 (81716) - https://sketch.com -->
    <title>LaserGun</title>
    <desc>Created with Sketch.</desc>
    <g id="Page-1" stroke="none" stroke-width="1" fill="none" fill-rule="evenodd">
        <g id="LaserGun" fill="#28646E">
            <path d="M38.2293333,35.3643034 C38.2293333,36.4609391 37.7872384,37.476474 36.9846955,38.2238575 C36.1821525,38.971241 35.1379456,39.339881 34.0434944,39.2615108 L11.9799808,37.6856431 C6.79335253,37.3153647 2.73066667,32.9520324 2.73066667,27.752297 C2.73066667,22.5525615 6.79335253,18.1892292 11.9799808,17.8186778 L34.0434944,16.24281 C35.1382187,16.1641668 36.1818795,16.5330799 36.9844224,17.2801903 C37.7872384,18.0275738 38.2293333,19.0431087 38.2293333,20.1400175 L38.2293333,35.3643034 Z M18.1559296,49.9556207 C16.83456,53.9634202 13.1115691,56.6566767 8.8915968,56.6566767 L4.04411733,56.6566767 C3.54030933,56.6566767 3.26915413,56.3320004 3.17576533,56.1924634 C3.08237653,56.0531994 2.88631467,55.6782788 3.07882667,55.2129732 L9.37028267,39.9985178 C10.1479765,40.2104175 10.9551616,40.3502276 11.7852843,40.4094831 L21.0832043,41.0735812 L18.1559296,49.9556207 Z M4.98510507,11.7262874 C4.77402453,11.1244484 4.83464533,10.4614426 5.15085653,9.90739029 C5.46843307,9.35142656 5.98780587,8.97705216 6.61285547,8.85307989 C20.1187328,6.17429589 27.4131627,10.073961 31.1205888,13.7139396 L11.7852843,15.0948378 C9.95273387,15.2256367 8.2313216,15.7491055 6.69887147,16.5767706 C6.36900693,15.6573551 5.83871147,14.161769 4.98510507,11.7262874 L4.98510507,11.7262874 Z M38.8453717,15.2818884 C37.687296,14.2035482 36.1742336,13.5779524 34.6060117,13.5096858 C31.1943168,9.22526976 26.3230805,6.57734229 20.1075371,5.64427349 C14.7668992,4.84200363 9.53248427,5.48999083 6.08146773,6.17456896 C4.68882773,6.45091243 3.48542293,7.31789909 2.77981867,8.55325269 C2.07066453,9.79461376 1.93522347,11.2803695 2.40817493,12.6295919 C2.91498667,14.0754799 3.48050773,15.6827503 3.92533333,16.930938 C4.09736533,17.413993 4.25110187,17.8418884 4.37725867,18.188137 C1.69355947,20.5277722 0,23.9648623 0,27.752297 C0,32.5924036 2.76452693,36.8609818 6.82994347,38.9955439 L0.5554176,54.1690394 C0.0726357333,55.3366724 0.203707733,56.6602266 0.905489067,57.710441 C1.60781653,58.7603823 2.78091093,59.3873434 4.04411733,59.3873434 L8.8915968,59.3873434 C14.2928555,59.3873434 19.0581419,55.9406959 20.7492437,50.8103194 L23.8925141,41.2742852 L24.920064,41.3477402 C25.5172608,43.4478959 26.9519531,46.9524335 30.2224725,49.2781423 C30.4627712,49.448809 30.7388416,49.531002 31.0127275,49.531002 C31.4395307,49.531002 31.8603264,49.3311172 32.1262933,48.9567428 C32.5634731,48.3423428 32.4195669,47.4898287 31.8051669,47.052922 C29.63456,45.5092762 28.4661077,43.264122 27.8525269,41.5571823 L33.8490709,41.9853508 C34.0052651,41.9965466 34.1614592,42.0020079 34.3173803,42.0020079 C35.9877291,42.0020079 37.6162987,41.3665818 38.8453717,40.2224324 C40.1894059,38.9709679 40.96,37.2004036 40.96,35.3643034 L40.96,20.1400175 C40.96,18.3036442 40.1891328,16.5330799 38.8453717,15.2818884 L38.8453717,15.2818884 Z" id="Fill-1"></path>
            <path d="M45.4029312,18.2642953 C44.6489941,18.2642953 44.0375979,18.8756915 44.0375979,19.6296286 L44.0375979,35.8746377 C44.0375979,36.6285747 44.6489941,37.239971 45.4029312,37.239971 C46.1571413,37.239971 46.7682645,36.6285747 46.7682645,35.8746377 L46.7682645,19.6296286 C46.7682645,18.8756915 46.1571413,18.2642953 45.4029312,18.2642953" id="Fill-4"></path>
            <path d="M17.404259,26.3868271 L10.2728499,26.3868271 C9.51863979,26.3868271 8.90751659,26.9982234 8.90751659,27.7521604 C8.90751659,28.5060975 9.51863979,29.1174938 10.2728499,29.1174938 L17.404259,29.1174938 C18.1584691,29.1174938 18.7695923,28.5060975 18.7695923,27.7521604 C18.7695923,26.9982234 18.1584691,26.3868271 17.404259,26.3868271" id="Fill-9"></path>
            <path d="M24.7850598,26.3560252 C24.0139196,26.3560252 23.38887,26.9810748 23.38887,27.752215 C23.38887,28.5233553 24.0139196,29.1484049 24.7850598,29.1484049 C25.5562001,29.1484049 26.1812497,28.5233553 26.1812497,27.752215 C26.1812497,26.9810748 25.5562001,26.3560252 24.7850598,26.3560252" id="Fill-11"></path>
            <path d="M30.1426551,26.3560252 C29.3715149,26.3560252 28.7464653,26.9810748 28.7464653,27.752215 C28.7464653,28.5233553 29.3715149,29.1484049 30.1426551,29.1484049 C30.9137954,29.1484049 31.538845,28.5233553 31.538845,27.752215 C31.538845,26.9810748 30.9137954,26.3560252 30.1426551,26.3560252" id="Fill-13"></path>
            <path d="M59.7118703,23.7117568 C57.9604207,23.7117568 56.4735727,24.8283264 55.9129668,26.3867179 L51.743785,26.3867179 L51.743785,22.3327701 C51.743785,21.5788331 51.1326618,20.9674368 50.3784516,20.9674368 C49.6242415,20.9674368 49.0131183,21.5788331 49.0131183,22.3327701 L49.0131183,33.1716053 C49.0131183,33.9255424 49.6242415,34.5369387 50.3784516,34.5369387 C51.1326618,34.5369387 51.743785,33.9255424 51.743785,33.1716053 L51.743785,29.1173845 L55.9129668,29.1173845 C56.4735727,30.6760491 57.9604207,31.7926187 59.7118703,31.7926187 C61.9433711,31.7926187 63.7524378,29.983552 63.7524378,27.7520512 C63.7524378,25.5208235 61.9433711,23.7117568 59.7118703,23.7117568" id="Fill-6"></path>
        </g>
    </g>
</svg>